# xmcd CD database file
#
# Track frame offsets:
#	150
#	23105
#	55055
#	82900
#	102997
#	127662
#	147640
#	169637
#	199595
#	226957
#
# Disc length: 3432 seconds
#
# Revision: 1
# Processed by: cddbd v1.4PL0 Copyright (c) Steve Scherf et al.
# Submitted via: CDex 1.50
#
DISCID=770d660a
DTITLE=Masahiko Osaka - Reborn
DYEAR=1900
DGENRE=Jazz
TTITLE0=Payin' Back
TTITLE1=Gravity Of 13
TTITLE2=Reborn
TTITLE3=Odd Blues
TTITLE4=Have You Been?
TTITLE5=Fall
TTITLE6=Talk Blue
TTITLE7=Family In Up North
TTITLE8=P's Trap
TTITLE9=Night And Day
EXTD=
EXTT0=
EXTT1=
EXTT2=
EXTT3=
EXTT4=
EXTT5=
EXTT6=
EXTT7=
EXTT8=
EXTT9=
PLAYORDER=
